<?xml version="1.0" encoding="UTF-8"?>
<svg xmlns="http://www.w3.org/2000/svg" viewBox="0 0 1263 441" role="img" aria-label="JetDeck SCOUT Smart Cyber Ops Utility Tool logo">
  <title>JetDeck SCOUT Smart Cyber Ops Utility Tool</title>
  <path fill="#F0F0DA" fill-rule="evenodd" d="M 193.0 70.0 L 194.0 73.0 L 191.0 74.0 L 188.0 80.0 L 186.0 90.0 L 184.0 94.0 L 185.0 109.0 L 183.0 110.0 L 182.0 114.0 L 182.0 123.0 L 181.0 124.0 L 181.0 131.0 L 180.0 132.0 L 181.0 151.0 L 184.0 158.0 L 186.0 160.0 L 186.0 162.0 L 192.0 169.0 L 194.0 169.0 L 195.0 171.0 L 204.0 173.0 L 207.0 176.0 L 211.0 175.0 L 212.0 177.0 L 216.0 176.0 L 221.0 178.0 L 302.0 178.0 L 303.0 177.0 L 320.0 178.0 L 321.0 177.0 L 339.0 177.0 L 341.0 175.0 L 340.0 169.0 L 342.0 168.0 L 342.0 163.0 L 343.0 162.0 L 343.0 151.0 L 342.0 148.0 L 340.0 149.0 L 247.0 149.0 L 243.0 147.0 L 237.0 141.0 L 238.0 130.0 L 241.0 128.0 L 247.0 128.0 L 249.0 126.0 L 251.0 128.0 L 338.0 128.0 L 339.0 126.0 L 349.0 126.0 L 352.0 92.0 L 353.0 91.0 L 353.0 86.0 L 351.0 85.0 L 353.0 81.0 L 353.0 73.0 L 350.0 67.0 L 350.0 63.0 L 348.0 63.0 L 338.0 52.0 L 326.0 48.0 L 255.0 48.0 L 254.0 50.0 L 252.0 48.0 L 233.0 48.0 L 227.0 50.0 L 222.0 50.0 L 206.0 57.0 Z M 333.0 169.0 L 335.0 168.0 L 336.0 170.0 L 334.0 171.0 Z M 337.0 165.0 L 340.0 164.0 L 341.0 167.0 L 338.0 168.0 Z M 339.0 154.0 L 342.0 155.0 L 340.0 158.0 L 337.0 157.0 Z M 211.0 92.0 L 213.0 91.0 L 214.0 93.0 L 212.0 94.0 Z M 240.0 96.0 L 243.0 95.0 L 243.0 93.0 L 241.0 92.0 L 241.0 89.0 L 243.0 88.0 L 243.0 86.0 L 248.0 81.0 L 249.0 78.0 L 251.0 79.0 L 297.0 79.0 L 303.0 84.0 L 303.0 88.0 L 301.0 89.0 L 300.0 93.0 L 302.0 98.0 L 299.0 100.0 L 290.0 100.0 L 289.0 101.0 L 279.0 101.0 L 278.0 100.0 L 244.0 100.0 Z M 740.0 64.0 L 741.0 67.0 L 738.0 70.0 L 736.0 70.0 L 734.0 76.0 L 732.0 78.0 L 728.0 91.0 L 725.0 129.0 L 724.0 130.0 L 725.0 150.0 L 727.0 153.0 L 727.0 157.0 L 730.0 160.0 L 732.0 165.0 L 743.0 173.0 L 746.0 174.0 L 749.0 173.0 L 756.0 174.0 L 758.0 177.0 L 765.0 176.0 L 766.0 178.0 L 769.0 177.0 L 774.0 177.0 L 775.0 178.0 L 780.0 178.0 L 781.0 177.0 L 802.0 177.0 L 803.0 175.0 L 811.0 175.0 L 812.0 177.0 L 836.0 177.0 L 838.0 175.0 L 840.0 177.0 L 854.0 177.0 L 855.0 176.0 L 880.0 177.0 L 880.0 175.0 L 882.0 174.0 L 883.0 163.0 L 879.0 159.0 L 879.0 157.0 L 882.0 156.0 L 884.0 158.0 L 884.0 153.0 L 880.0 153.0 L 878.0 151.0 L 875.0 151.0 L 874.0 148.0 L 871.0 150.0 L 868.0 150.0 L 867.0 148.0 L 862.0 148.0 L 861.0 147.0 L 856.0 147.0 L 855.0 148.0 L 833.0 148.0 L 832.0 147.0 L 824.0 147.0 L 823.0 148.0 L 815.0 148.0 L 814.0 147.0 L 812.0 148.0 L 799.0 148.0 L 796.0 147.0 L 795.0 148.0 L 790.0 148.0 L 785.0 146.0 L 780.0 141.0 L 780.0 128.0 L 781.0 127.0 L 790.0 127.0 L 791.0 126.0 L 795.0 126.0 L 796.0 127.0 L 830.0 127.0 L 831.0 126.0 L 837.0 126.0 L 838.0 127.0 L 842.0 127.0 L 843.0 126.0 L 847.0 127.0 L 854.0 127.0 L 855.0 126.0 L 857.0 127.0 L 887.0 127.0 L 888.0 125.0 L 890.0 125.0 L 891.0 106.0 L 892.0 105.0 L 891.0 100.0 L 893.0 96.0 L 893.0 88.0 L 894.0 87.0 L 894.0 72.0 L 893.0 68.0 L 890.0 66.0 L 891.0 62.0 L 888.0 58.0 L 883.0 56.0 L 881.0 52.0 L 866.0 47.0 L 779.0 47.0 L 778.0 48.0 L 770.0 48.0 L 766.0 50.0 L 762.0 50.0 L 756.0 52.0 L 750.0 57.0 L 748.0 57.0 L 748.0 59.0 L 745.0 62.0 L 742.0 62.0 Z M 872.0 166.0 L 874.0 165.0 L 875.0 167.0 L 873.0 168.0 Z M 867.0 165.0 L 869.0 166.0 L 868.0 169.0 L 865.0 168.0 Z M 877.0 160.0 L 879.0 160.0 L 882.0 164.0 L 882.0 166.0 L 880.0 168.0 L 875.0 164.0 L 875.0 162.0 Z M 869.0 152.0 L 871.0 151.0 L 872.0 153.0 L 870.0 154.0 Z M 761.0 134.0 L 763.0 133.0 L 765.0 136.0 L 762.0 137.0 Z M 783.0 94.0 L 785.0 93.0 L 785.0 86.0 L 786.0 84.0 L 792.0 78.0 L 803.0 78.0 L 804.0 76.0 L 807.0 76.0 L 808.0 78.0 L 812.0 78.0 L 813.0 76.0 L 818.0 76.0 L 819.0 78.0 L 838.0 78.0 L 843.0 84.0 L 842.0 97.0 L 840.0 99.0 L 831.0 99.0 L 830.0 101.0 L 827.0 101.0 L 826.0 99.0 L 805.0 99.0 L 804.0 100.0 L 801.0 99.0 L 786.0 99.0 Z M 787.0 76.0 L 789.0 75.0 L 790.0 77.0 L 788.0 78.0 Z M 1072.0 46.0 L 1070.0 47.0 L 1051.0 47.0 L 1050.0 46.0 L 1048.0 47.0 L 1044.0 46.0 L 1028.0 46.0 L 1027.0 47.0 L 1018.0 47.0 L 1017.0 46.0 L 1008.0 46.0 L 1007.0 47.0 L 959.0 47.0 L 958.0 48.0 L 948.0 49.0 L 935.0 54.0 L 928.0 59.0 L 926.0 62.0 L 924.0 62.0 L 923.0 67.0 L 919.0 70.0 L 914.0 78.0 L 913.0 81.0 L 914.0 85.0 L 911.0 86.0 L 910.0 89.0 L 908.0 116.0 L 907.0 117.0 L 907.0 125.0 L 906.0 126.0 L 907.0 128.0 L 906.0 130.0 L 906.0 142.0 L 907.0 143.0 L 908.0 153.0 L 911.0 160.0 L 914.0 161.0 L 916.0 163.0 L 916.0 165.0 L 920.0 169.0 L 926.0 171.0 L 928.0 173.0 L 932.0 172.0 L 933.0 175.0 L 939.0 175.0 L 944.0 177.0 L 956.0 177.0 L 957.0 175.0 L 959.0 175.0 L 960.0 177.0 L 963.0 176.0 L 967.0 177.0 L 975.0 177.0 L 976.0 176.0 L 983.0 176.0 L 984.0 177.0 L 988.0 176.0 L 1004.0 176.0 L 1005.0 177.0 L 1057.0 176.0 L 1060.0 173.0 L 1060.0 169.0 L 1056.0 170.0 L 1055.0 168.0 L 1057.0 165.0 L 1060.0 165.0 L 1060.0 163.0 L 1056.0 161.0 L 1059.0 154.0 L 1062.0 153.0 L 1060.0 147.0 L 1033.0 147.0 L 1032.0 146.0 L 1026.0 146.0 L 1025.0 147.0 L 1001.0 146.0 L 998.0 147.0 L 997.0 146.0 L 974.0 146.0 L 968.0 144.0 L 964.0 138.0 L 964.0 125.0 L 965.0 124.0 L 966.0 106.0 L 967.0 105.0 L 965.0 100.0 L 968.0 98.0 L 968.0 93.0 L 966.0 91.0 L 968.0 86.0 L 971.0 83.0 L 973.0 83.0 L 977.0 80.0 L 978.0 78.0 L 1010.0 78.0 L 1011.0 76.0 L 1013.0 76.0 L 1014.0 78.0 L 1018.0 78.0 L 1019.0 76.0 L 1024.0 76.0 L 1025.0 78.0 L 1070.0 78.0 L 1071.0 68.0 L 1072.0 67.0 L 1071.0 54.0 L 1073.0 53.0 Z M 950.0 170.0 L 951.0 172.0 L 948.0 174.0 L 947.0 172.0 Z M 952.0 160.0 L 954.0 159.0 L 955.0 162.0 L 953.0 163.0 Z M 1024.0 159.0 L 1026.0 158.0 L 1027.0 160.0 L 1025.0 161.0 Z M 1018.0 159.0 L 1020.0 158.0 L 1021.0 160.0 L 1019.0 161.0 Z M 1030.0 156.0 L 1033.0 157.0 L 1033.0 162.0 L 1032.0 163.0 L 1030.0 162.0 L 1029.0 159.0 Z M 971.0 156.0 L 973.0 155.0 L 974.0 157.0 L 972.0 158.0 Z M 1041.0 150.0 L 1043.0 149.0 L 1044.0 151.0 L 1042.0 152.0 Z M 393.0 15.0 L 392.0 16.0 L 389.0 46.0 L 387.0 48.0 L 383.0 48.0 L 382.0 50.0 L 380.0 48.0 L 369.0 48.0 L 368.0 50.0 L 368.0 59.0 L 367.0 60.0 L 367.0 69.0 L 366.0 70.0 L 366.0 78.0 L 368.0 80.0 L 373.0 80.0 L 374.0 78.0 L 377.0 78.0 L 378.0 80.0 L 383.0 80.0 L 385.0 82.0 L 383.0 103.0 L 382.0 104.0 L 382.0 115.0 L 381.0 116.0 L 381.0 131.0 L 380.0 132.0 L 379.0 146.0 L 378.0 147.0 L 379.0 157.0 L 381.0 163.0 L 388.0 172.0 L 392.0 174.0 L 398.0 175.0 L 400.0 177.0 L 402.0 175.0 L 404.0 175.0 L 407.0 178.0 L 409.0 176.0 L 414.0 178.0 L 471.0 178.0 L 473.0 176.0 L 473.0 172.0 L 474.0 171.0 L 476.0 149.0 L 474.0 147.0 L 443.0 147.0 L 436.0 141.0 L 437.0 118.0 L 438.0 117.0 L 439.0 103.0 L 440.0 102.0 L 439.0 86.0 L 444.0 77.0 L 446.0 78.0 L 453.0 78.0 L 454.0 79.0 L 473.0 79.0 L 474.0 80.0 L 481.0 79.0 L 484.0 76.0 L 483.0 60.0 L 485.0 59.0 L 486.0 48.0 L 447.0 48.0 L 446.0 47.0 L 447.0 43.0 L 446.0 30.0 L 448.0 29.0 L 449.0 15.0 L 425.0 15.0 L 424.0 17.0 L 420.0 15.0 L 408.0 15.0 L 407.0 17.0 L 404.0 17.0 L 403.0 15.0 L 400.0 16.0 Z M 465.0 174.0 L 467.0 173.0 L 468.0 175.0 L 466.0 176.0 Z M 420.0 165.0 L 422.0 164.0 L 423.0 166.0 L 421.0 167.0 Z M 403.0 152.0 L 405.0 151.0 L 406.0 154.0 L 404.0 155.0 Z M 424.0 22.0 L 426.0 21.0 L 427.0 23.0 L 425.0 24.0 Z M 508.0 7.0 L 507.0 21.0 L 509.0 23.0 L 506.0 24.0 L 506.0 25.0 L 510.0 25.0 L 511.0 28.0 L 506.0 30.0 L 505.0 34.0 L 505.0 44.0 L 504.0 45.0 L 503.0 64.0 L 502.0 65.0 L 502.0 77.0 L 501.0 78.0 L 501.0 87.0 L 500.0 88.0 L 500.0 97.0 L 499.0 98.0 L 498.0 117.0 L 497.0 118.0 L 497.0 128.0 L 496.0 129.0 L 496.0 134.0 L 498.0 136.0 L 495.0 137.0 L 495.0 152.0 L 494.0 153.0 L 493.0 175.0 L 492.0 176.0 L 493.0 178.0 L 495.0 177.0 L 499.0 178.0 L 521.0 178.0 L 522.0 177.0 L 525.0 178.0 L 566.0 178.0 L 567.0 177.0 L 576.0 178.0 L 580.0 177.0 L 581.0 175.0 L 583.0 176.0 L 583.0 178.0 L 595.0 178.0 L 596.0 177.0 L 600.0 177.0 L 601.0 178.0 L 604.0 177.0 L 636.0 177.0 L 640.0 178.0 L 644.0 176.0 L 654.0 176.0 L 666.0 173.0 L 668.0 171.0 L 672.0 170.0 L 674.0 167.0 L 677.0 167.0 L 684.0 163.0 L 698.0 149.0 L 698.0 147.0 L 703.0 139.0 L 702.0 135.0 L 705.0 133.0 L 707.0 127.0 L 708.0 111.0 L 710.0 104.0 L 710.0 99.0 L 708.0 97.0 L 709.0 96.0 L 709.0 87.0 L 712.0 84.0 L 712.0 74.0 L 714.0 67.0 L 713.0 64.0 L 714.0 61.0 L 714.0 51.0 L 712.0 45.0 L 712.0 40.0 L 709.0 39.0 L 709.0 35.0 L 707.0 34.0 L 708.0 31.0 L 702.0 25.0 L 702.0 22.0 L 700.0 20.0 L 697.0 20.0 L 693.0 17.0 L 692.0 14.0 L 686.0 13.0 L 685.0 11.0 L 683.0 11.0 L 678.0 8.0 L 667.0 7.0 L 666.0 6.0 L 655.0 7.0 L 654.0 5.0 L 651.0 5.0 L 650.0 7.0 L 648.0 5.0 L 646.0 5.0 L 645.0 7.0 L 639.0 7.0 L 638.0 5.0 L 624.0 5.0 L 623.0 6.0 L 621.0 5.0 L 612.0 5.0 L 611.0 6.0 L 609.0 5.0 L 603.0 5.0 L 602.0 6.0 L 599.0 5.0 L 570.0 5.0 L 569.0 7.0 L 563.0 7.0 L 562.0 5.0 L 544.0 5.0 L 543.0 7.0 L 541.0 7.0 L 539.0 5.0 L 538.0 7.0 L 523.0 7.0 L 522.0 6.0 L 510.0 6.0 Z M 520.0 163.0 L 522.0 162.0 L 523.0 164.0 L 521.0 165.0 Z M 507.0 157.0 L 510.0 156.0 L 511.0 159.0 L 509.0 160.0 Z M 704.0 70.0 L 705.0 72.0 L 702.0 74.0 L 701.0 72.0 Z M 568.0 40.0 L 583.0 40.0 L 585.0 38.0 L 594.0 38.0 L 598.0 40.0 L 621.0 38.0 L 623.0 40.0 L 635.0 40.0 L 638.0 41.0 L 647.0 47.0 L 650.0 53.0 L 651.0 62.0 L 650.0 63.0 L 650.0 72.0 L 649.0 73.0 L 649.0 81.0 L 648.0 82.0 L 648.0 89.0 L 647.0 90.0 L 647.0 100.0 L 646.0 101.0 L 645.0 117.0 L 644.0 118.0 L 644.0 121.0 L 646.0 123.0 L 644.0 124.0 L 644.0 127.0 L 639.0 135.0 L 632.0 141.0 L 625.0 143.0 L 612.0 143.0 L 611.0 144.0 L 607.0 144.0 L 606.0 143.0 L 602.0 143.0 L 601.0 144.0 L 589.0 144.0 L 588.0 143.0 L 585.0 144.0 L 573.0 144.0 L 572.0 143.0 L 558.0 143.0 L 556.0 141.0 L 558.0 133.0 L 557.0 125.0 L 559.0 119.0 L 559.0 110.0 L 560.0 109.0 L 560.0 102.0 L 561.0 101.0 L 560.0 91.0 L 562.0 89.0 L 562.0 84.0 L 563.0 83.0 L 562.0 61.0 L 564.0 60.0 L 564.0 54.0 L 566.0 50.0 L 566.0 45.0 Z M 632.0 28.0 L 633.0 25.0 L 636.0 26.0 L 634.0 29.0 Z M 604.0 25.0 L 606.0 24.0 L 607.0 26.0 L 605.0 27.0 Z M 529.0 17.0 L 531.0 16.0 L 532.0 18.0 L 530.0 19.0 Z M 177.0 8.0 L 173.0 7.0 L 172.0 5.0 L 170.0 5.0 L 169.0 7.0 L 167.0 7.0 L 165.0 5.0 L 163.0 7.0 L 160.0 7.0 L 158.0 5.0 L 157.0 7.0 L 151.0 7.0 L 150.0 8.0 L 147.0 5.0 L 145.0 6.0 L 141.0 5.0 L 137.0 6.0 L 127.0 5.0 L 126.0 7.0 L 116.0 6.0 L 114.0 9.0 L 112.0 9.0 L 111.0 24.0 L 110.0 25.0 L 109.0 39.0 L 108.0 40.0 L 108.0 50.0 L 107.0 51.0 L 106.0 66.0 L 105.0 67.0 L 105.0 75.0 L 104.0 76.0 L 101.0 108.0 L 100.0 109.0 L 100.0 116.0 L 99.0 117.0 L 99.0 127.0 L 97.0 133.0 L 91.0 139.0 L 90.0 142.0 L 81.0 144.0 L 80.0 146.0 L 77.0 146.0 L 76.0 144.0 L 63.0 144.0 L 62.0 145.0 L 57.0 145.0 L 56.0 144.0 L 40.0 144.0 L 39.0 145.0 L 35.0 145.0 L 32.0 144.0 L 29.0 145.0 L 28.0 147.0 L 26.0 147.0 L 26.0 152.0 L 25.0 153.0 L 25.0 163.0 L 23.0 171.0 L 23.0 177.0 L 25.0 179.0 L 29.0 179.0 L 30.0 177.0 L 36.0 177.0 L 37.0 179.0 L 39.0 177.0 L 43.0 177.0 L 44.0 179.0 L 65.0 179.0 L 66.0 177.0 L 73.0 177.0 L 74.0 179.0 L 81.0 179.0 L 82.0 177.0 L 85.0 177.0 L 86.0 179.0 L 102.0 179.0 L 103.0 177.0 L 107.0 178.0 L 117.0 177.0 L 120.0 175.0 L 125.0 175.0 L 127.0 172.0 L 130.0 173.0 L 136.0 170.0 L 137.0 167.0 L 142.0 166.0 L 147.0 161.0 L 147.0 159.0 L 151.0 157.0 L 153.0 150.0 L 158.0 147.0 L 160.0 141.0 L 160.0 137.0 L 162.0 135.0 L 163.0 131.0 L 163.0 122.0 L 164.0 121.0 L 164.0 113.0 L 165.0 112.0 L 165.0 103.0 L 164.0 101.0 L 166.0 100.0 L 167.0 96.0 L 167.0 87.0 L 168.0 86.0 L 169.0 69.0 L 170.0 68.0 L 168.0 66.0 L 168.0 63.0 L 170.0 62.0 L 171.0 51.0 L 172.0 50.0 L 172.0 45.0 L 170.0 44.0 L 170.0 39.0 L 171.0 36.0 L 174.0 34.0 L 175.0 23.0 L 173.0 21.0 L 173.0 19.0 L 174.0 18.0 L 174.0 14.0 L 177.0 11.0 Z M 115.0 159.0 L 119.0 158.0 L 120.0 160.0 L 116.0 161.0 Z M 114.0 126.0 L 117.0 125.0 L 118.0 128.0 L 116.0 129.0 Z M 153.0 31.0 L 155.0 30.0 L 156.0 32.0 L 154.0 33.0 Z M 1096.0 6.0 L 1093.0 38.0 L 1092.0 39.0 L 1091.0 54.0 L 1090.0 55.0 L 1090.0 63.0 L 1089.0 64.0 L 1091.0 67.0 L 1089.0 68.0 L 1088.0 79.0 L 1087.0 80.0 L 1086.0 100.0 L 1084.0 105.0 L 1084.0 117.0 L 1083.0 118.0 L 1083.0 125.0 L 1081.0 133.0 L 1081.0 142.0 L 1080.0 143.0 L 1080.0 151.0 L 1079.0 152.0 L 1079.0 165.0 L 1078.0 166.0 L 1077.0 176.0 L 1107.0 176.0 L 1108.0 177.0 L 1112.0 177.0 L 1113.0 176.0 L 1134.0 176.0 L 1134.0 168.0 L 1135.0 167.0 L 1134.0 159.0 L 1136.0 158.0 L 1138.0 138.0 L 1141.0 133.0 L 1144.0 133.0 L 1144.0 130.0 L 1147.0 126.0 L 1154.0 127.0 L 1157.0 130.0 L 1157.0 134.0 L 1161.0 138.0 L 1163.0 142.0 L 1167.0 144.0 L 1167.0 147.0 L 1170.0 147.0 L 1172.0 149.0 L 1173.0 154.0 L 1175.0 157.0 L 1177.0 157.0 L 1179.0 159.0 L 1179.0 161.0 L 1182.0 163.0 L 1182.0 165.0 L 1191.0 176.0 L 1237.0 176.0 L 1238.0 175.0 L 1254.0 176.0 L 1254.0 173.0 L 1248.0 167.0 L 1248.0 165.0 L 1242.0 160.0 L 1242.0 158.0 L 1237.0 153.0 L 1235.0 149.0 L 1230.0 146.0 L 1230.0 143.0 L 1218.0 130.0 L 1216.0 126.0 L 1211.0 121.0 L 1208.0 120.0 L 1206.0 115.0 L 1204.0 115.0 L 1202.0 113.0 L 1202.0 110.0 L 1199.0 109.0 L 1196.0 101.0 L 1201.0 96.0 L 1201.0 94.0 L 1206.0 92.0 L 1206.0 90.0 L 1209.0 87.0 L 1212.0 87.0 L 1213.0 84.0 L 1220.0 77.0 L 1223.0 77.0 L 1242.0 61.0 L 1242.0 59.0 L 1244.0 57.0 L 1247.0 56.0 L 1248.0 54.0 L 1252.0 53.0 L 1258.0 48.0 L 1258.0 46.0 L 1207.0 47.0 L 1206.0 49.0 L 1199.0 51.0 L 1193.0 56.0 L 1188.0 63.0 L 1184.0 64.0 L 1178.0 70.0 L 1177.0 74.0 L 1174.0 73.0 L 1167.0 79.0 L 1166.0 82.0 L 1163.0 82.0 L 1149.0 94.0 L 1148.0 96.0 L 1145.0 97.0 L 1144.0 96.0 L 1145.0 86.0 L 1143.0 85.0 L 1143.0 83.0 L 1146.0 80.0 L 1147.0 64.0 L 1148.0 63.0 L 1148.0 61.0 L 1146.0 60.0 L 1146.0 57.0 L 1149.0 56.0 L 1149.0 48.0 L 1148.0 46.0 L 1150.0 45.0 L 1152.0 23.0 L 1153.0 22.0 L 1151.0 19.0 L 1153.0 18.0 L 1155.0 7.0 L 1153.0 6.0 L 1153.0 4.0 L 1103.0 4.0 L 1102.0 5.0 L 1099.0 4.0 Z M 1080.0 172.0 L 1082.0 171.0 L 1083.0 173.0 L 1081.0 174.0 Z M 1130.0 168.0 L 1132.0 167.0 L 1133.0 169.0 L 1131.0 170.0 Z M 1207.0 158.0 L 1209.0 157.0 L 1210.0 159.0 L 1208.0 160.0 Z M 1131.0 23.0 L 1133.0 22.0 L 1134.0 24.0 L 1132.0 25.0 Z"/>
  <path fill="#b54830" fill-rule="evenodd" d="M 278.0 327.0 L 280.0 329.0 L 286.0 329.0 L 287.0 330.0 L 367.0 330.0 L 368.0 329.0 L 382.0 329.0 L 383.0 330.0 L 390.0 330.0 L 391.0 329.0 L 408.0 329.0 L 409.0 330.0 L 415.0 330.0 L 416.0 329.0 L 462.0 329.0 L 465.0 330.0 L 467.0 328.0 L 467.0 326.0 L 279.0 326.0 Z M 4.0 327.0 L 5.0 330.0 L 193.0 330.0 L 199.0 328.0 L 199.0 326.0 L 6.0 326.0 Z M 1103.0 327.0 L 1104.0 329.0 L 1165.0 329.0 L 1166.0 328.0 L 1165.0 325.0 L 1105.0 325.0 Z M 788.0 325.0 L 788.0 327.0 L 793.0 329.0 L 974.0 329.0 L 979.0 327.0 L 979.0 325.0 Z M 713.0 326.0 L 686.0 326.0 L 685.0 325.0 L 681.0 326.0 L 678.0 325.0 L 672.0 325.0 L 671.0 326.0 L 655.0 326.0 L 654.0 325.0 L 640.0 325.0 L 639.0 326.0 L 519.0 326.0 L 519.0 328.0 L 522.0 329.0 L 574.0 329.0 L 575.0 330.0 L 589.0 330.0 L 590.0 329.0 L 708.0 329.0 L 713.0 327.0 Z M 1104.0 317.0 L 1104.0 320.0 L 1106.0 321.0 L 1164.0 321.0 L 1166.0 320.0 L 1166.0 316.0 L 1105.0 316.0 Z M 260.0 228.0 L 258.0 236.0 L 257.0 262.0 L 256.0 263.0 L 256.0 273.0 L 255.0 274.0 L 255.0 286.0 L 256.0 288.0 L 254.0 291.0 L 254.0 294.0 L 256.0 298.0 L 254.0 300.0 L 255.0 306.0 L 259.0 308.0 L 257.0 310.0 L 257.0 312.0 L 262.0 316.0 L 262.0 319.0 L 266.0 322.0 L 268.0 321.0 L 271.0 322.0 L 275.0 322.0 L 276.0 321.0 L 311.0 321.0 L 312.0 322.0 L 318.0 322.0 L 319.0 321.0 L 467.0 321.0 L 468.0 320.0 L 467.0 317.0 L 458.0 317.0 L 457.0 316.0 L 458.0 314.0 L 467.0 314.0 L 468.0 313.0 L 467.0 307.0 L 469.0 305.0 L 469.0 299.0 L 467.0 298.0 L 397.0 298.0 L 396.0 299.0 L 391.0 299.0 L 390.0 298.0 L 323.0 299.0 L 319.0 298.0 L 318.0 299.0 L 305.0 299.0 L 304.0 297.0 L 305.0 296.0 L 318.0 296.0 L 318.0 290.0 L 316.0 289.0 L 316.0 287.0 L 318.0 286.0 L 321.0 244.0 L 322.0 243.0 L 322.0 238.0 L 327.0 232.0 L 330.0 231.0 L 473.0 231.0 L 475.0 230.0 L 475.0 224.0 L 476.0 223.0 L 477.0 202.0 L 475.0 200.0 L 302.0 200.0 L 301.0 201.0 L 295.0 201.0 L 294.0 202.0 L 286.0 203.0 L 276.0 208.0 L 267.0 216.0 Z M 439.0 315.0 L 440.0 314.0 L 453.0 314.0 L 454.0 316.0 L 453.0 317.0 L 440.0 317.0 Z M 426.0 315.0 L 430.0 314.0 L 431.0 316.0 L 427.0 317.0 Z M 403.0 315.0 L 404.0 314.0 L 414.0 314.0 L 415.0 316.0 L 414.0 317.0 L 404.0 317.0 Z M 382.0 315.0 L 383.0 314.0 L 400.0 314.0 L 401.0 316.0 L 400.0 317.0 L 383.0 317.0 Z M 319.0 315.0 L 320.0 314.0 L 350.0 314.0 L 351.0 316.0 L 350.0 317.0 L 320.0 317.0 Z M 266.0 315.0 L 267.0 314.0 L 285.0 314.0 L 286.0 316.0 L 285.0 317.0 L 267.0 317.0 Z M 392.0 307.0 L 393.0 306.0 L 398.0 306.0 L 399.0 308.0 L 398.0 309.0 L 393.0 309.0 Z M 366.0 307.0 L 367.0 306.0 L 376.0 306.0 L 377.0 308.0 L 376.0 309.0 L 367.0 309.0 Z M 324.0 307.0 L 327.0 306.0 L 328.0 308.0 L 325.0 309.0 Z M 309.0 307.0 L 310.0 306.0 L 317.0 306.0 L 318.0 308.0 L 317.0 309.0 L 310.0 309.0 Z M 299.0 307.0 L 300.0 306.0 L 306.0 306.0 L 307.0 308.0 L 306.0 309.0 L 300.0 309.0 Z M 270.0 307.0 L 271.0 306.0 L 287.0 306.0 L 288.0 308.0 L 287.0 309.0 L 271.0 309.0 Z M 230.0 202.0 L 228.0 200.0 L 221.0 200.0 L 220.0 201.0 L 46.0 201.0 L 45.0 202.0 L 36.0 203.0 L 26.0 207.0 L 14.0 217.0 L 7.0 232.0 L 7.0 244.0 L 6.0 245.0 L 6.0 253.0 L 5.0 254.0 L 5.0 263.0 L 9.0 272.0 L 14.0 276.0 L 29.0 280.0 L 161.0 280.0 L 166.0 288.0 L 163.0 293.0 L 164.0 297.0 L 163.0 299.0 L 7.0 299.0 L 6.0 300.0 L 7.0 309.0 L 5.0 311.0 L 6.0 314.0 L 5.0 321.0 L 6.0 322.0 L 195.0 322.0 L 196.0 321.0 L 211.0 322.0 L 215.0 321.0 L 216.0 318.0 L 213.0 318.0 L 210.0 315.0 L 211.0 314.0 L 219.0 315.0 L 223.0 312.0 L 222.0 308.0 L 225.0 307.0 L 228.0 303.0 L 228.0 300.0 L 226.0 297.0 L 229.0 294.0 L 229.0 290.0 L 227.0 287.0 L 230.0 284.0 L 230.0 269.0 L 227.0 260.0 L 220.0 254.0 L 211.0 250.0 L 204.0 250.0 L 203.0 249.0 L 73.0 249.0 L 70.0 246.0 L 70.0 238.0 L 75.0 232.0 L 81.0 232.0 L 82.0 231.0 L 85.0 232.0 L 95.0 232.0 L 96.0 231.0 L 103.0 231.0 L 104.0 232.0 L 121.0 232.0 L 122.0 231.0 L 124.0 232.0 L 159.0 232.0 L 160.0 231.0 L 163.0 232.0 L 167.0 231.0 L 202.0 232.0 L 203.0 231.0 L 221.0 231.0 L 225.0 232.0 L 227.0 230.0 L 228.0 209.0 Z M 156.0 315.0 L 157.0 314.0 L 207.0 314.0 L 208.0 316.0 L 207.0 317.0 L 157.0 317.0 Z M 146.0 315.0 L 148.0 314.0 L 149.0 316.0 L 147.0 317.0 Z M 190.0 307.0 L 191.0 306.0 L 200.0 306.0 L 201.0 308.0 L 200.0 309.0 L 191.0 309.0 Z M 174.0 307.0 L 178.0 306.0 L 179.0 308.0 L 175.0 309.0 Z M 146.0 307.0 L 148.0 306.0 L 149.0 308.0 L 147.0 309.0 Z M 219.0 297.0 L 220.0 296.0 L 224.0 296.0 L 225.0 298.0 L 224.0 299.0 L 220.0 299.0 Z M 773.0 201.0 L 772.0 220.0 L 771.0 221.0 L 771.0 237.0 L 770.0 238.0 L 770.0 248.0 L 769.0 249.0 L 769.0 261.0 L 768.0 262.0 L 768.0 271.0 L 767.0 272.0 L 767.0 285.0 L 768.0 286.0 L 767.0 295.0 L 770.0 298.0 L 767.0 299.0 L 767.0 305.0 L 770.0 307.0 L 769.0 312.0 L 772.0 314.0 L 787.0 313.0 L 789.0 315.0 L 788.0 317.0 L 774.0 317.0 L 774.0 319.0 L 776.0 321.0 L 992.0 321.0 L 994.0 319.0 L 994.0 317.0 L 984.0 317.0 L 983.0 316.0 L 979.0 316.0 L 978.0 317.0 L 975.0 316.0 L 910.0 316.0 L 909.0 314.0 L 910.0 313.0 L 992.0 313.0 L 993.0 314.0 L 998.0 314.0 L 1001.0 311.0 L 999.0 307.0 L 1003.0 306.0 L 1006.0 301.0 L 1004.0 296.0 L 1006.0 295.0 L 1006.0 286.0 L 1007.0 285.0 L 1008.0 266.0 L 1009.0 265.0 L 1009.0 256.0 L 1010.0 255.0 L 1010.0 245.0 L 1011.0 244.0 L 1011.0 233.0 L 1012.0 232.0 L 1013.0 207.0 L 1014.0 206.0 L 1014.0 200.0 L 1012.0 199.0 L 948.0 199.0 L 946.0 201.0 L 945.0 225.0 L 944.0 226.0 L 944.0 236.0 L 943.0 237.0 L 943.0 255.0 L 942.0 256.0 L 941.0 274.0 L 940.0 275.0 L 940.0 285.0 L 941.0 288.0 L 938.0 293.0 L 939.0 297.0 L 937.0 299.0 L 934.0 298.0 L 835.0 298.0 L 834.0 297.0 L 835.0 293.0 L 832.0 287.0 L 834.0 285.0 L 835.0 270.0 L 836.0 269.0 L 837.0 238.0 L 838.0 237.0 L 838.0 229.0 L 839.0 228.0 L 839.0 214.0 L 840.0 213.0 L 841.0 201.0 L 839.0 199.0 L 784.0 199.0 L 783.0 200.0 L 774.0 200.0 Z M 964.0 307.0 L 965.0 306.0 L 977.0 306.0 L 978.0 308.0 L 977.0 309.0 L 965.0 309.0 Z M 923.0 307.0 L 924.0 306.0 L 959.0 306.0 L 960.0 308.0 L 959.0 309.0 L 924.0 309.0 Z M 775.0 307.0 L 776.0 306.0 L 917.0 306.0 L 918.0 308.0 L 917.0 309.0 L 776.0 309.0 Z M 975.0 297.0 L 978.0 296.0 L 979.0 298.0 L 976.0 299.0 Z M 942.0 297.0 L 943.0 296.0 L 951.0 296.0 L 952.0 298.0 L 951.0 299.0 L 943.0 299.0 Z M 792.0 297.0 L 793.0 296.0 L 797.0 296.0 L 798.0 298.0 L 797.0 299.0 L 793.0 299.0 Z M 780.0 297.0 L 781.0 296.0 L 785.0 296.0 L 786.0 298.0 L 785.0 299.0 L 781.0 299.0 Z M 744.0 220.0 L 740.0 213.0 L 734.0 207.0 L 726.0 203.0 L 714.0 200.0 L 686.0 200.0 L 685.0 199.0 L 671.0 199.0 L 670.0 200.0 L 539.0 200.0 L 527.0 203.0 L 520.0 206.0 L 518.0 208.0 L 516.0 208.0 L 507.0 216.0 L 503.0 222.0 L 501.0 230.0 L 499.0 233.0 L 499.0 246.0 L 498.0 247.0 L 497.0 274.0 L 496.0 275.0 L 496.0 286.0 L 497.0 288.0 L 495.0 291.0 L 495.0 295.0 L 497.0 296.0 L 510.0 296.0 L 511.0 298.0 L 510.0 299.0 L 497.0 299.0 L 495.0 300.0 L 495.0 305.0 L 497.0 306.0 L 574.0 306.0 L 575.0 308.0 L 574.0 309.0 L 498.0 309.0 L 497.0 311.0 L 501.0 315.0 L 503.0 314.0 L 506.0 315.0 L 505.0 317.0 L 503.0 317.0 L 503.0 319.0 L 505.0 321.0 L 728.0 321.0 L 730.0 318.0 L 728.0 315.0 L 734.0 313.0 L 736.0 311.0 L 735.0 309.0 L 700.0 309.0 L 699.0 307.0 L 700.0 306.0 L 738.0 306.0 L 740.0 303.0 L 739.0 297.0 L 742.0 293.0 L 740.0 287.0 L 742.0 285.0 L 742.0 280.0 L 743.0 279.0 L 744.0 249.0 L 745.0 248.0 L 745.0 238.0 L 746.0 237.0 L 746.0 228.0 Z M 697.0 315.0 L 698.0 314.0 L 702.0 314.0 L 703.0 316.0 L 702.0 317.0 L 698.0 317.0 Z M 671.0 315.0 L 672.0 314.0 L 687.0 314.0 L 688.0 316.0 L 687.0 317.0 L 672.0 317.0 Z M 533.0 315.0 L 534.0 314.0 L 542.0 314.0 L 543.0 316.0 L 542.0 317.0 L 534.0 317.0 Z M 516.0 315.0 L 517.0 314.0 L 526.0 314.0 L 527.0 316.0 L 526.0 317.0 L 517.0 317.0 Z M 706.0 314.0 L 707.0 313.0 L 715.0 313.0 L 718.0 314.0 L 719.0 316.0 L 718.0 317.0 L 707.0 317.0 Z M 670.0 307.0 L 671.0 306.0 L 689.0 306.0 L 690.0 308.0 L 689.0 309.0 L 671.0 309.0 Z M 614.0 307.0 L 615.0 306.0 L 654.0 306.0 L 655.0 308.0 L 654.0 309.0 L 615.0 309.0 Z M 728.0 297.0 L 729.0 296.0 L 734.0 296.0 L 735.0 298.0 L 734.0 299.0 L 729.0 299.0 Z M 514.0 297.0 L 515.0 296.0 L 558.0 296.0 L 559.0 295.0 L 558.0 291.0 L 555.0 287.0 L 559.0 283.0 L 561.0 242.0 L 562.0 241.0 L 562.0 237.0 L 564.0 234.0 L 570.0 230.0 L 574.0 230.0 L 575.0 231.0 L 604.0 231.0 L 605.0 230.0 L 676.0 231.0 L 680.0 235.0 L 679.0 259.0 L 678.0 260.0 L 678.0 271.0 L 677.0 272.0 L 677.0 285.0 L 678.0 288.0 L 675.0 293.0 L 675.0 295.0 L 676.0 296.0 L 687.0 296.0 L 688.0 297.0 L 687.0 299.0 L 670.0 299.0 L 669.0 298.0 L 515.0 299.0 Z M 1030.0 215.0 L 1030.0 229.0 L 1032.0 230.0 L 1035.0 229.0 L 1070.0 229.0 L 1071.0 230.0 L 1075.0 230.0 L 1076.0 229.0 L 1079.0 230.0 L 1082.0 229.0 L 1084.0 230.0 L 1086.0 229.0 L 1098.0 229.0 L 1099.0 230.0 L 1110.0 230.0 L 1111.0 231.0 L 1110.0 259.0 L 1109.0 260.0 L 1109.0 270.0 L 1108.0 271.0 L 1108.0 278.0 L 1107.0 279.0 L 1108.0 287.0 L 1106.0 291.0 L 1106.0 294.0 L 1107.0 295.0 L 1118.0 295.0 L 1119.0 297.0 L 1118.0 298.0 L 1108.0 298.0 L 1106.0 299.0 L 1105.0 305.0 L 1107.0 307.0 L 1104.0 310.0 L 1106.0 313.0 L 1166.0 313.0 L 1167.0 312.0 L 1166.0 306.0 L 1168.0 301.0 L 1167.0 296.0 L 1169.0 293.0 L 1168.0 286.0 L 1170.0 283.0 L 1170.0 270.0 L 1171.0 269.0 L 1171.0 262.0 L 1172.0 261.0 L 1174.0 232.0 L 1176.0 230.0 L 1254.0 230.0 L 1257.0 227.0 L 1258.0 199.0 L 1257.0 198.0 L 1204.0 198.0 L 1203.0 199.0 L 1192.0 199.0 L 1191.0 198.0 L 1167.0 198.0 L 1166.0 199.0 L 1106.0 198.0 L 1105.0 199.0 L 1033.0 200.0 L 1032.0 201.0 L 1032.0 208.0 Z M 1131.0 306.0 L 1134.0 305.0 L 1135.0 307.0 L 1132.0 308.0 Z M 1109.0 306.0 L 1110.0 305.0 L 1116.0 305.0 L 1120.0 306.0 L 1121.0 308.0 L 1120.0 309.0 L 1115.0 309.0 L 1114.0 308.0 L 1110.0 308.0 Z M 1128.0 296.0 L 1131.0 295.0 L 1132.0 297.0 L 1129.0 298.0 Z"/>
  <path fill="#13D4D4" fill-rule="evenodd" d="M 1120.0 411.0 L 1119.0 419.0 L 1122.0 421.0 L 1126.0 421.0 L 1128.0 420.0 L 1130.0 417.0 L 1130.0 411.0 L 1129.0 410.0 L 1123.0 410.0 L 1122.0 411.0 Z M 1061.0 380.0 L 1055.0 387.0 L 1054.0 393.0 L 1053.0 394.0 L 1053.0 413.0 L 1055.0 417.0 L 1062.0 421.0 L 1080.0 421.0 L 1081.0 420.0 L 1086.0 419.0 L 1091.0 413.0 L 1091.0 411.0 L 1093.0 407.0 L 1093.0 401.0 L 1094.0 400.0 L 1094.0 387.0 L 1093.0 386.0 L 1092.0 382.0 L 1090.0 380.0 L 1086.0 378.0 L 1065.0 378.0 Z M 1069.0 386.0 L 1080.0 386.0 L 1084.0 390.0 L 1084.0 402.0 L 1083.0 403.0 L 1083.0 407.0 L 1080.0 411.0 L 1076.0 413.0 L 1071.0 413.0 L 1070.0 412.0 L 1067.0 412.0 L 1065.0 411.0 L 1063.0 408.0 L 1063.0 397.0 L 1064.0 396.0 L 1064.0 391.0 Z M 1014.0 379.0 L 1007.0 387.0 L 1006.0 393.0 L 1005.0 394.0 L 1005.0 414.0 L 1006.0 416.0 L 1009.0 419.0 L 1013.0 420.0 L 1014.0 421.0 L 1032.0 421.0 L 1033.0 420.0 L 1038.0 419.0 L 1043.0 413.0 L 1044.0 409.0 L 1045.0 408.0 L 1045.0 401.0 L 1046.0 400.0 L 1046.0 386.0 L 1045.0 385.0 L 1045.0 383.0 L 1041.0 379.0 L 1039.0 379.0 L 1038.0 378.0 L 1017.0 378.0 L 1016.0 379.0 Z M 1022.0 386.0 L 1031.0 386.0 L 1036.0 390.0 L 1035.0 406.0 L 1033.0 410.0 L 1028.0 413.0 L 1020.0 413.0 L 1018.0 412.0 L 1015.0 408.0 L 1015.0 395.0 L 1016.0 394.0 L 1017.0 390.0 Z M 929.0 378.0 L 920.0 378.0 L 918.0 380.0 L 918.0 382.0 L 909.0 399.0 L 909.0 401.0 L 906.0 405.0 L 904.0 404.0 L 903.0 399.0 L 901.0 396.0 L 901.0 393.0 L 900.0 392.0 L 900.0 390.0 L 898.0 386.0 L 897.0 380.0 L 895.0 378.0 L 886.0 378.0 L 885.0 379.0 L 886.0 383.0 L 887.0 384.0 L 887.0 386.0 L 890.0 392.0 L 890.0 395.0 L 892.0 398.0 L 892.0 401.0 L 895.0 407.0 L 895.0 410.0 L 896.0 411.0 L 898.0 419.0 L 899.0 420.0 L 897.0 425.0 L 894.0 428.0 L 890.0 428.0 L 887.0 430.0 L 887.0 435.0 L 888.0 436.0 L 897.0 436.0 L 901.0 434.0 L 905.0 430.0 L 910.0 420.0 L 910.0 418.0 L 920.0 398.0 L 922.0 396.0 L 922.0 394.0 L 925.0 388.0 L 927.0 386.0 L 928.0 382.0 L 930.0 380.0 Z M 843.0 378.0 L 836.0 378.0 L 834.0 381.0 L 833.0 401.0 L 832.0 402.0 L 832.0 409.0 L 831.0 410.0 L 831.0 420.0 L 832.0 421.0 L 839.0 421.0 L 841.0 419.0 L 841.0 411.0 L 842.0 410.0 L 842.0 400.0 L 843.0 399.0 L 843.0 391.0 L 844.0 390.0 L 844.0 382.0 L 845.0 381.0 L 845.0 380.0 Z M 806.0 378.0 L 797.0 378.0 L 797.0 382.0 L 796.0 383.0 L 796.0 391.0 L 795.0 392.0 L 795.0 403.0 L 794.0 404.0 L 794.0 413.0 L 793.0 414.0 L 793.0 419.0 L 797.0 421.0 L 801.0 421.0 L 803.0 419.0 L 803.0 414.0 L 804.0 413.0 L 804.0 399.0 L 805.0 398.0 L 805.0 392.0 L 806.0 391.0 Z M 638.0 383.0 L 638.0 385.0 L 637.0 386.0 L 637.0 390.0 L 636.0 391.0 L 636.0 397.0 L 637.0 399.0 L 639.0 401.0 L 639.0 402.0 L 641.0 403.0 L 659.0 403.0 L 662.0 406.0 L 662.0 410.0 L 658.0 413.0 L 636.0 413.0 L 635.0 414.0 L 635.0 417.0 L 634.0 419.0 L 636.0 421.0 L 662.0 421.0 L 663.0 420.0 L 667.0 419.0 L 670.0 416.0 L 670.0 414.0 L 672.0 411.0 L 672.0 401.0 L 671.0 399.0 L 668.0 396.0 L 665.0 396.0 L 664.0 395.0 L 648.0 395.0 L 646.0 393.0 L 646.0 389.0 L 649.0 386.0 L 670.0 386.0 L 672.0 384.0 L 672.0 379.0 L 671.0 378.0 L 645.0 378.0 Z M 623.0 379.0 L 621.0 378.0 L 606.0 378.0 L 604.0 380.0 L 602.0 380.0 L 599.0 378.0 L 591.0 378.0 L 591.0 380.0 L 590.0 381.0 L 590.0 390.0 L 589.0 391.0 L 589.0 403.0 L 588.0 404.0 L 587.0 421.0 L 586.0 422.0 L 586.0 435.0 L 595.0 435.0 L 595.0 432.0 L 596.0 431.0 L 596.0 422.0 L 599.0 419.0 L 603.0 420.0 L 604.0 421.0 L 616.0 421.0 L 619.0 419.0 L 621.0 419.0 L 626.0 413.0 L 627.0 405.0 L 628.0 404.0 L 628.0 396.0 L 629.0 395.0 L 629.0 390.0 L 628.0 389.0 L 628.0 385.0 L 627.0 383.0 Z M 604.0 387.0 L 615.0 387.0 L 618.0 390.0 L 618.0 403.0 L 617.0 404.0 L 617.0 407.0 L 616.0 409.0 L 611.0 413.0 L 601.0 412.0 L 598.0 409.0 L 598.0 402.0 L 599.0 401.0 L 599.0 392.0 L 600.0 390.0 Z M 500.0 378.0 L 492.0 378.0 L 487.0 381.0 L 485.0 381.0 L 481.0 378.0 L 476.0 378.0 L 474.0 380.0 L 474.0 385.0 L 473.0 386.0 L 473.0 398.0 L 472.0 399.0 L 472.0 406.0 L 471.0 407.0 L 471.0 420.0 L 472.0 421.0 L 479.0 421.0 L 481.0 419.0 L 481.0 410.0 L 482.0 409.0 L 482.0 398.0 L 483.0 397.0 L 483.0 393.0 L 486.0 389.0 L 490.0 387.0 L 500.0 387.0 L 500.0 385.0 L 501.0 384.0 L 501.0 380.0 Z M 433.0 380.0 L 429.0 384.0 L 427.0 388.0 L 427.0 392.0 L 426.0 393.0 L 426.0 404.0 L 425.0 405.0 L 425.0 412.0 L 427.0 416.0 L 431.0 420.0 L 433.0 420.0 L 434.0 421.0 L 460.0 421.0 L 462.0 419.0 L 462.0 414.0 L 461.0 413.0 L 440.0 413.0 L 435.0 409.0 L 435.0 406.0 L 438.0 403.0 L 463.0 403.0 L 464.0 402.0 L 464.0 395.0 L 465.0 394.0 L 465.0 385.0 L 464.0 384.0 L 464.0 382.0 L 459.0 378.0 L 437.0 378.0 Z M 455.0 388.0 L 455.0 394.0 L 453.0 396.0 L 439.0 396.0 L 437.0 394.0 L 437.0 390.0 L 440.0 386.0 L 448.0 386.0 L 449.0 385.0 L 451.0 385.0 Z M 373.0 379.0 L 371.0 378.0 L 365.0 378.0 L 361.0 382.0 L 361.0 384.0 L 355.0 395.0 L 355.0 397.0 L 353.0 399.0 L 352.0 403.0 L 350.0 405.0 L 349.0 405.0 L 347.0 402.0 L 347.0 399.0 L 344.0 393.0 L 344.0 390.0 L 342.0 386.0 L 341.0 380.0 L 338.0 378.0 L 330.0 378.0 L 330.0 381.0 L 331.0 382.0 L 332.0 388.0 L 333.0 389.0 L 333.0 391.0 L 334.0 392.0 L 334.0 394.0 L 336.0 398.0 L 336.0 401.0 L 338.0 403.0 L 339.0 409.0 L 341.0 413.0 L 341.0 416.0 L 343.0 419.0 L 343.0 421.0 L 341.0 425.0 L 338.0 428.0 L 333.0 428.0 L 330.0 431.0 L 330.0 434.0 L 333.0 436.0 L 340.0 436.0 L 341.0 435.0 L 344.0 435.0 L 346.0 433.0 L 347.0 433.0 L 352.0 424.0 L 352.0 422.0 L 361.0 404.0 L 363.0 402.0 L 363.0 400.0 L 366.0 395.0 L 366.0 393.0 L 368.0 391.0 L 373.0 381.0 Z M 212.0 379.0 L 210.0 378.0 L 206.0 378.0 L 205.0 379.0 L 202.0 379.0 L 200.0 381.0 L 196.0 381.0 L 195.0 379.0 L 193.0 379.0 L 192.0 378.0 L 188.0 378.0 L 186.0 380.0 L 186.0 382.0 L 185.0 383.0 L 185.0 392.0 L 184.0 393.0 L 184.0 406.0 L 183.0 407.0 L 183.0 416.0 L 182.0 417.0 L 182.0 419.0 L 184.0 421.0 L 191.0 421.0 L 192.0 420.0 L 192.0 414.0 L 193.0 413.0 L 193.0 403.0 L 194.0 402.0 L 194.0 394.0 L 195.0 392.0 L 200.0 387.0 L 211.0 387.0 L 212.0 386.0 L 212.0 382.0 L 213.0 381.0 Z M 142.0 378.0 L 141.0 379.0 L 141.0 385.0 L 142.0 386.0 L 161.0 386.0 L 165.0 389.0 L 165.0 393.0 L 163.0 395.0 L 153.0 395.0 L 152.0 396.0 L 143.0 396.0 L 141.0 397.0 L 137.0 401.0 L 136.0 405.0 L 135.0 406.0 L 135.0 414.0 L 136.0 415.0 L 136.0 417.0 L 141.0 421.0 L 155.0 421.0 L 159.0 419.0 L 163.0 419.0 L 167.0 421.0 L 173.0 420.0 L 174.0 419.0 L 174.0 404.0 L 175.0 403.0 L 175.0 395.0 L 176.0 394.0 L 176.0 386.0 L 175.0 385.0 L 175.0 383.0 L 172.0 380.0 L 168.0 378.0 Z M 145.0 408.0 L 146.0 407.0 L 146.0 405.0 L 150.0 402.0 L 161.0 402.0 L 164.0 404.0 L 164.0 406.0 L 165.0 407.0 L 164.0 411.0 L 162.0 413.0 L 148.0 413.0 L 146.0 411.0 Z M 66.0 379.0 L 66.0 393.0 L 65.0 394.0 L 65.0 401.0 L 64.0 402.0 L 64.0 414.0 L 63.0 415.0 L 63.0 420.0 L 64.0 421.0 L 72.0 421.0 L 73.0 420.0 L 74.0 406.0 L 75.0 405.0 L 75.0 393.0 L 76.0 391.0 L 81.0 387.0 L 89.0 387.0 L 92.0 390.0 L 92.0 403.0 L 91.0 404.0 L 91.0 412.0 L 90.0 413.0 L 90.0 420.0 L 91.0 421.0 L 98.0 421.0 L 100.0 419.0 L 101.0 403.0 L 102.0 402.0 L 102.0 392.0 L 104.0 389.0 L 108.0 387.0 L 115.0 387.0 L 119.0 391.0 L 119.0 400.0 L 118.0 401.0 L 118.0 413.0 L 117.0 414.0 L 117.0 419.0 L 119.0 421.0 L 126.0 421.0 L 127.0 419.0 L 127.0 411.0 L 128.0 410.0 L 128.0 401.0 L 129.0 400.0 L 129.0 386.0 L 126.0 380.0 L 124.0 379.0 L 121.0 379.0 L 120.0 378.0 L 110.0 378.0 L 109.0 379.0 L 107.0 379.0 L 104.0 382.0 L 102.0 382.0 L 96.0 378.0 L 85.0 378.0 L 80.0 381.0 L 78.0 381.0 L 76.0 378.0 L 67.0 378.0 Z M 859.0 365.0 L 859.0 367.0 L 858.0 368.0 L 858.0 374.0 L 857.0 376.0 L 855.0 378.0 L 853.0 378.0 L 851.0 381.0 L 851.0 384.0 L 856.0 388.0 L 856.0 396.0 L 855.0 397.0 L 855.0 409.0 L 854.0 410.0 L 854.0 413.0 L 857.0 419.0 L 859.0 420.0 L 862.0 420.0 L 863.0 421.0 L 874.0 421.0 L 876.0 419.0 L 876.0 415.0 L 874.0 413.0 L 868.0 413.0 L 865.0 410.0 L 865.0 398.0 L 866.0 397.0 L 866.0 389.0 L 869.0 386.0 L 877.0 386.0 L 879.0 383.0 L 879.0 379.0 L 878.0 378.0 L 870.0 378.0 L 868.0 376.0 L 868.0 369.0 L 869.0 368.0 L 869.0 366.0 L 867.0 365.0 Z M 769.0 365.0 L 768.0 366.0 L 768.0 373.0 L 767.0 374.0 L 767.0 376.0 L 765.0 378.0 L 762.0 378.0 L 761.0 379.0 L 761.0 385.0 L 764.0 386.0 L 766.0 388.0 L 766.0 396.0 L 765.0 397.0 L 765.0 403.0 L 764.0 404.0 L 764.0 415.0 L 768.0 420.0 L 771.0 420.0 L 772.0 421.0 L 780.0 421.0 L 781.0 420.0 L 784.0 420.0 L 785.0 419.0 L 785.0 414.0 L 777.0 412.0 L 775.0 410.0 L 775.0 396.0 L 776.0 395.0 L 776.0 388.0 L 778.0 386.0 L 787.0 386.0 L 789.0 382.0 L 789.0 379.0 L 788.0 378.0 L 779.0 378.0 L 778.0 377.0 L 778.0 366.0 L 777.0 365.0 Z M 226.0 365.0 L 225.0 366.0 L 225.0 375.0 L 223.0 378.0 L 220.0 378.0 L 218.0 381.0 L 218.0 385.0 L 219.0 386.0 L 222.0 386.0 L 223.0 387.0 L 223.0 398.0 L 222.0 399.0 L 222.0 415.0 L 225.0 419.0 L 229.0 421.0 L 239.0 421.0 L 240.0 420.0 L 242.0 420.0 L 242.0 414.0 L 241.0 413.0 L 235.0 413.0 L 232.0 410.0 L 232.0 408.0 L 231.0 407.0 L 232.0 405.0 L 232.0 396.0 L 233.0 395.0 L 233.0 389.0 L 235.0 386.0 L 244.0 386.0 L 246.0 383.0 L 246.0 379.0 L 244.0 378.0 L 237.0 378.0 L 235.0 376.0 L 235.0 366.0 L 234.0 365.0 Z M 1006.0 363.0 L 961.0 363.0 L 960.0 364.0 L 960.0 368.0 L 959.0 369.0 L 959.0 371.0 L 962.0 373.0 L 975.0 373.0 L 977.0 375.0 L 976.0 387.0 L 975.0 388.0 L 975.0 399.0 L 974.0 400.0 L 974.0 409.0 L 973.0 410.0 L 973.0 420.0 L 974.0 421.0 L 982.0 421.0 L 983.0 420.0 L 983.0 416.0 L 984.0 415.0 L 984.0 406.0 L 985.0 405.0 L 985.0 399.0 L 986.0 398.0 L 987.0 376.0 L 988.0 374.0 L 991.0 372.0 L 1006.0 372.0 L 1006.0 369.0 L 1007.0 368.0 L 1007.0 364.0 Z M 708.0 363.0 L 707.0 365.0 L 707.0 375.0 L 706.0 376.0 L 706.0 384.0 L 705.0 385.0 L 705.0 395.0 L 704.0 396.0 L 704.0 402.0 L 703.0 403.0 L 703.0 407.0 L 704.0 408.0 L 704.0 411.0 L 706.0 415.0 L 710.0 419.0 L 714.0 420.0 L 715.0 421.0 L 737.0 421.0 L 738.0 420.0 L 743.0 419.0 L 745.0 417.0 L 746.0 417.0 L 746.0 416.0 L 749.0 413.0 L 751.0 409.0 L 751.0 406.0 L 752.0 405.0 L 752.0 397.0 L 753.0 396.0 L 753.0 390.0 L 754.0 389.0 L 754.0 379.0 L 755.0 378.0 L 755.0 369.0 L 756.0 368.0 L 756.0 364.0 L 755.0 363.0 L 747.0 363.0 L 745.0 365.0 L 745.0 373.0 L 744.0 374.0 L 744.0 383.0 L 743.0 384.0 L 743.0 393.0 L 742.0 394.0 L 742.0 400.0 L 741.0 401.0 L 741.0 405.0 L 736.0 410.0 L 734.0 411.0 L 721.0 411.0 L 719.0 410.0 L 715.0 406.0 L 715.0 394.0 L 716.0 393.0 L 716.0 385.0 L 717.0 384.0 L 718.0 363.0 Z M 544.0 364.0 L 542.0 366.0 L 540.0 366.0 L 536.0 370.0 L 533.0 376.0 L 533.0 378.0 L 532.0 379.0 L 532.0 384.0 L 531.0 385.0 L 531.0 393.0 L 530.0 394.0 L 530.0 408.0 L 531.0 409.0 L 531.0 412.0 L 534.0 416.0 L 534.0 417.0 L 541.0 421.0 L 563.0 421.0 L 564.0 420.0 L 567.0 420.0 L 571.0 417.0 L 574.0 416.0 L 574.0 415.0 L 578.0 411.0 L 578.0 409.0 L 580.0 405.0 L 581.0 391.0 L 582.0 390.0 L 582.0 374.0 L 579.0 368.0 L 574.0 364.0 L 572.0 364.0 L 571.0 363.0 L 547.0 363.0 L 546.0 364.0 Z M 548.0 373.0 L 550.0 373.0 L 551.0 372.0 L 565.0 372.0 L 567.0 373.0 L 571.0 378.0 L 571.0 390.0 L 570.0 391.0 L 570.0 401.0 L 569.0 402.0 L 568.0 406.0 L 563.0 411.0 L 546.0 411.0 L 542.0 408.0 L 542.0 406.0 L 541.0 405.0 L 541.0 391.0 L 542.0 390.0 L 542.0 382.0 L 543.0 381.0 L 543.0 379.0 Z M 287.0 365.0 L 281.0 371.0 L 279.0 375.0 L 279.0 379.0 L 278.0 380.0 L 278.0 386.0 L 277.0 387.0 L 277.0 397.0 L 276.0 398.0 L 276.0 410.0 L 277.0 411.0 L 277.0 413.0 L 280.0 417.0 L 281.0 417.0 L 285.0 420.0 L 288.0 420.0 L 289.0 421.0 L 318.0 421.0 L 320.0 418.0 L 320.0 412.0 L 319.0 411.0 L 293.0 411.0 L 288.0 407.0 L 287.0 405.0 L 288.0 385.0 L 289.0 384.0 L 289.0 379.0 L 290.0 378.0 L 290.0 376.0 L 293.0 373.0 L 295.0 372.0 L 323.0 372.0 L 324.0 371.0 L 324.0 363.0 L 292.0 363.0 L 291.0 364.0 Z M 15.0 366.0 L 11.0 370.0 L 10.0 372.0 L 10.0 375.0 L 9.0 376.0 L 9.0 379.0 L 8.0 380.0 L 8.0 385.0 L 9.0 386.0 L 9.0 389.0 L 10.0 391.0 L 13.0 394.0 L 17.0 396.0 L 42.0 396.0 L 46.0 401.0 L 46.0 405.0 L 45.0 407.0 L 41.0 411.0 L 8.0 411.0 L 7.0 413.0 L 7.0 420.0 L 8.0 421.0 L 42.0 421.0 L 43.0 420.0 L 46.0 420.0 L 52.0 417.0 L 52.0 416.0 L 55.0 413.0 L 55.0 411.0 L 56.0 410.0 L 56.0 403.0 L 57.0 402.0 L 56.0 392.0 L 54.0 390.0 L 54.0 389.0 L 53.0 389.0 L 49.0 386.0 L 23.0 386.0 L 20.0 384.0 L 19.0 378.0 L 20.0 376.0 L 25.0 372.0 L 51.0 372.0 L 52.0 373.0 L 54.0 373.0 L 57.0 371.0 L 57.0 364.0 L 56.0 363.0 L 21.0 363.0 Z M 1114.0 362.0 L 1106.0 362.0 L 1105.0 363.0 L 1105.0 368.0 L 1104.0 369.0 L 1104.0 380.0 L 1103.0 381.0 L 1103.0 391.0 L 1102.0 392.0 L 1102.0 400.0 L 1101.0 401.0 L 1101.0 414.0 L 1100.0 415.0 L 1100.0 419.0 L 1103.0 421.0 L 1108.0 421.0 L 1110.0 419.0 L 1111.0 401.0 L 1112.0 400.0 L 1112.0 390.0 L 1113.0 389.0 L 1114.0 371.0 L 1115.0 370.0 L 1115.0 363.0 Z M 836.0 364.0 L 836.0 370.0 L 842.0 371.0 L 846.0 369.0 L 846.0 363.0 L 842.0 363.0 L 841.0 362.0 L 839.0 362.0 Z M 826.0 362.0 L 819.0 362.0 L 817.0 365.0 L 816.0 383.0 L 815.0 384.0 L 815.0 392.0 L 814.0 393.0 L 814.0 403.0 L 813.0 404.0 L 813.0 414.0 L 812.0 415.0 L 812.0 420.0 L 813.0 421.0 L 820.0 421.0 L 822.0 419.0 L 822.0 412.0 L 823.0 411.0 L 823.0 402.0 L 824.0 401.0 L 824.0 391.0 L 825.0 390.0 L 825.0 380.0 L 826.0 379.0 L 826.0 370.0 L 827.0 369.0 L 827.0 363.0 Z M 799.0 362.0 L 799.0 364.0 L 798.0 365.0 L 798.0 369.0 L 799.0 371.0 L 806.0 371.0 L 808.0 369.0 L 808.0 363.0 L 807.0 362.0 Z M 383.0 362.0 L 381.0 366.0 L 381.0 376.0 L 380.0 377.0 L 380.0 392.0 L 379.0 393.0 L 379.0 404.0 L 378.0 405.0 L 378.0 415.0 L 377.0 416.0 L 377.0 420.0 L 378.0 421.0 L 385.0 421.0 L 388.0 419.0 L 390.0 419.0 L 391.0 420.0 L 395.0 420.0 L 396.0 421.0 L 406.0 421.0 L 414.0 416.0 L 414.0 415.0 L 416.0 413.0 L 416.0 411.0 L 418.0 407.0 L 418.0 395.0 L 419.0 394.0 L 419.0 389.0 L 418.0 388.0 L 417.0 382.0 L 416.0 382.0 L 414.0 380.0 L 414.0 379.0 L 412.0 379.0 L 411.0 378.0 L 396.0 378.0 L 394.0 380.0 L 392.0 380.0 L 391.0 379.0 L 391.0 366.0 L 392.0 364.0 L 389.0 362.0 Z M 396.0 386.0 L 403.0 386.0 L 405.0 387.0 L 409.0 392.0 L 408.0 406.0 L 405.0 410.0 L 405.0 411.0 L 402.0 413.0 L 393.0 413.0 L 388.0 410.0 L 389.0 392.0 L 393.0 387.0 L 395.0 387.0 Z"/>
</svg>
